<svg width="241" height="80" viewBox="0 0 241 80" fill="none" xmlns="http://www.w3.org/2000/svg">
<g clip-path="url(#clip0_30_146)">
<path fill-rule="evenodd" clip-rule="evenodd" d="M129.641 1.72365L127.807 8.52311H119.736L114.491 28.0431H106.2L111.446 8.52311H103.375L105.209 1.72365H129.641ZM156.347 4.8311C156.347 5.39157 156.237 6.08586 156.017 6.91451C155.283 9.64404 154.745 11.3254 154.403 11.9592C153.595 13.4212 152.214 14.3842 150.257 14.8467C151.994 15.3831 152.862 16.4189 152.862 17.9541C152.862 18.4413 152.789 18.953 152.642 19.4894L150.331 28.0431H142.15L145.048 17.2957H135.914L133.016 28.0431H124.836L131.915 1.72365H151.872C154.855 1.72365 156.347 2.75947 156.347 4.8311ZM147.396 8.52311H138.261L137.234 12.3613H146.368L147.396 8.52311ZM185.694 1.72365L180.522 20.9149C179.739 23.7906 178.577 25.7156 177.037 26.6909C175.667 27.5923 173.43 28.0431 170.324 28.0431H161.41C158.915 28.0431 157.142 27.7626 156.09 27.2026C155.038 26.6416 154.513 25.6668 154.513 24.2777C154.513 23.4003 154.696 22.2794 155.063 20.9149L160.235 1.72418H168.49L163.317 20.9149H172.231L177.404 1.72418L185.694 1.72365ZM212.547 1.72365L210.713 8.52311H195.048L191.71 20.9155H207.375L205.467 28.0431H189.803C187.308 28.0431 185.536 27.7626 184.484 27.2026C183.432 26.6416 182.907 25.6668 182.907 24.2777C182.907 23.4003 183.09 22.2794 183.457 20.9149L186.795 8.52258C187.529 5.79359 188.702 3.94142 190.317 2.96663C191.687 2.13797 193.875 1.72365 196.883 1.72365H212.547ZM240.501 1.72365L229.532 12.032C233.934 12.032 236.135 13.6283 236.135 16.8209C236.135 17.6008 236.001 18.49 235.731 19.4894L233.42 28.0431H225.241L228.138 17.2963H219.004L216.105 28.0431H207.925L215.005 1.72365H223.186L220.398 12.032H221.351L232.32 1.72365H240.501ZM105.345 47.9822L109.626 47.7589C109.681 49.1181 109.916 50.0361 110.323 50.5077C110.979 51.2839 112.196 51.6694 113.962 51.6694C115.433 51.6694 116.497 51.4054 117.153 50.883C117.81 50.3557 118.141 49.7214 118.141 48.981C118.141 48.3371 117.871 47.7895 117.332 47.343C116.955 47.0181 115.917 46.486 114.222 45.7553C112.527 45.0198 111.29 44.4117 110.511 43.9192C109.732 43.4272 109.117 42.7934 108.669 42.0124C108.221 41.2261 107.997 40.3134 107.997 39.2631C107.997 37.427 108.663 35.9105 109.997 34.6985C111.331 33.4914 113.26 32.8876 115.785 32.8876C118.35 32.8876 120.335 33.4861 121.74 34.6835C123.144 35.8853 123.919 37.4778 124.06 39.4713L119.75 39.664C119.637 38.6245 119.261 37.8226 118.615 37.2701C117.968 36.7172 117.016 36.4383 115.754 36.4383C114.512 36.4383 113.621 36.6561 113.092 37.0924C112.558 37.5287 112.293 38.0763 112.293 38.7412C112.293 39.3648 112.537 39.8819 113.026 40.2882C113.509 40.7036 114.588 41.2716 116.258 41.9969C118.777 43.0772 120.376 43.9497 121.063 44.6242C122.086 45.6182 122.6 46.8917 122.6 48.4436C122.6 50.3653 121.836 52.0087 120.31 53.3684C118.783 54.7329 116.66 55.4122 113.932 55.4122C112.054 55.4122 110.425 55.098 109.05 54.469C107.671 53.84 106.699 52.968 106.134 51.8471C105.569 50.7261 105.304 49.4425 105.345 47.9822ZM125.028 55.0423L129.594 33.258H145.8L145.042 36.8997H133.335L132.291 41.8449H143.607L142.848 45.4866H131.528L130.159 51.4006H142.879L142.105 55.0423H125.028ZM149.989 55.0423H145.49L150.065 33.258H159.772C161.442 33.258 162.745 33.4304 163.671 33.7703C164.602 34.115 165.356 34.7392 165.926 35.6519C166.496 36.5598 166.781 37.6657 166.781 38.9639C166.781 40.8155 166.226 42.347 165.112 43.5493C163.997 44.7511 162.312 45.4967 160.058 45.7858C160.632 46.2981 161.177 46.9779 161.681 47.82C162.689 49.5238 163.803 51.9333 165.041 55.0423H160.205C159.818 53.8149 159.059 51.8974 157.925 49.2905C157.309 47.8858 156.652 46.9372 155.955 46.4555C155.527 46.1664 154.784 46.024 153.72 46.024H151.888L149.989 55.0423ZM152.57 42.7528H154.957C157.375 42.7528 158.978 42.6109 159.767 42.3218C160.556 42.0381 161.177 41.5863 161.625 40.9729C162.068 40.354 162.292 39.7149 162.292 39.0404C162.292 38.2439 161.971 37.6502 161.325 37.2546C160.927 37.0164 160.068 36.8997 158.744 36.8997H153.796L152.57 42.7528ZM178.386 55.0423H173.581L169.662 33.258H174.152L176.92 49.7369L185.976 33.258H190.434L178.386 55.0423ZM187.63 55.0423L192.206 33.258H196.695L192.134 55.0423H187.63ZM212.143 47.1958L216.679 47.881C215.793 50.3252 214.464 52.1966 212.698 53.4899C210.927 54.7838 208.855 55.4277 206.478 55.4277C203.806 55.4277 201.714 54.6264 200.207 53.0237C198.7 51.4156 197.947 49.0876 197.947 46.0395C197.947 43.5589 198.451 41.2967 199.464 39.2379C200.472 37.184 201.872 35.6112 203.658 34.5208C205.45 33.4304 207.399 32.8881 209.507 32.8881C211.873 32.8881 213.787 33.5166 215.248 34.7799C216.709 36.0427 217.569 37.7669 217.829 39.9429L213.518 40.3589C213.278 39.0907 212.82 38.1727 212.138 37.6047C211.456 37.0368 210.55 36.7525 209.414 36.7525C208.173 36.7525 207.013 37.1278 205.933 37.8788C204.854 38.6341 203.994 39.8112 203.348 41.4086C202.701 43.0065 202.375 44.6044 202.375 46.2017C202.375 47.9468 202.798 49.2905 203.638 50.2444C204.478 51.1924 205.526 51.6694 206.778 51.6694C207.939 51.6694 209.008 51.2941 209.975 50.5382C210.947 49.7878 211.67 48.6716 212.143 47.1958ZM218.363 55.0423L222.929 33.258H239.135L238.377 36.8997H226.67L225.626 41.8449H236.942L236.183 45.4866H224.863L223.494 51.4006H236.214L235.44 55.0423H218.363ZM103.301 74.9145L106.257 60.8124H109.173L107.917 66.8046L114.461 60.8124H118.363L112.01 66.3448L116.673 74.9145H113.381L109.885 68.1996L107.133 70.5967L106.227 74.9145H103.301ZM126.877 71.7985H121.265L119.569 74.914H116.576L124.577 60.8124H127.813L130.109 74.9145H127.348L126.877 71.7985ZM126.518 69.4506L125.697 63.7737L122.281 69.4506H126.518ZM131.566 74.9145L132.03 72.6914L140.179 63.1699H133.586L134.077 60.8124H144.281L143.856 63.0253L135.622 72.6063C136.498 72.5865 137.003 72.5763 137.137 72.5763C137.754 72.5763 138.607 72.5699 139.694 72.557H143.036L142.541 74.9145H131.566ZM153.231 71.7985H147.619L145.922 74.914H142.93L150.93 60.8124H154.166L156.463 74.9145H153.702L153.231 71.7985ZM152.871 69.4506L152.051 63.7737L148.634 69.4506H152.871ZM158.209 74.9145L161.165 60.8124H164.081L162.826 66.8046L169.369 60.8124H173.271L166.918 66.3448L171.581 74.9145H168.289L164.792 68.1996L162.041 70.5967L161.135 74.9145H158.209ZM182.276 68.6139H176.803L175.482 74.9145H172.566L175.528 60.8124H178.434L177.294 66.2565H182.767L183.917 60.8124H186.823L183.868 74.9145H180.955L182.276 68.6139ZM187.239 70.3441L190.009 70.1995C190.046 71.0796 190.198 71.6738 190.461 71.9789C190.886 72.481 191.674 72.731 192.817 72.731C193.769 72.731 194.458 72.5597 194.883 72.2219C195.308 71.8804 195.522 71.4698 195.522 70.9907C195.522 70.5737 195.348 70.2193 194.998 69.9303C194.755 69.7199 194.082 69.3752 192.985 68.9025C191.888 68.4261 191.087 68.0326 190.583 67.7141C190.089 67.4071 189.679 66.9828 189.39 66.4791C189.1 65.9706 188.955 65.3796 188.955 64.6998C188.955 63.5114 189.387 62.5297 190.25 61.7449C191.113 60.9633 192.362 60.5726 193.997 60.5726C195.657 60.5726 196.942 60.9601 197.852 61.7347C198.761 62.5131 199.262 63.5441 199.354 64.8341L196.563 64.9589C196.491 64.286 196.247 63.7673 195.829 63.4092C195.41 63.0516 194.794 62.8706 193.977 62.8706C193.173 62.8706 192.596 63.012 192.253 63.2946C191.907 63.5767 191.736 63.9316 191.736 64.3615C191.736 64.7656 191.895 65.1002 192.21 65.3625C192.524 65.6323 193.222 65.9995 194.303 66.4695C195.934 67.1686 196.968 67.7334 197.413 68.1702C198.076 68.8136 198.409 69.638 198.409 70.6428C198.409 71.8868 197.915 72.951 196.926 73.831C195.938 74.7143 194.563 75.1538 192.797 75.1538C191.581 75.1538 190.527 74.9504 189.637 74.5435C188.744 74.1362 188.115 73.5714 187.749 72.8455C187.384 72.1202 187.212 71.2894 187.239 70.3441ZM206.139 74.9145H203.223L205.694 63.1699H201.545L202.036 60.8124H213.187L212.696 63.1699H208.6L206.139 74.9145ZM219.859 71.7985H214.248L212.551 74.914H209.558L217.559 60.8124H220.795L223.091 74.9145H220.33L219.859 71.7985ZM219.5 69.4506L218.679 63.7737L215.263 69.4506H219.5ZM236.182 74.9145H233.467L229.645 65.4385L227.659 74.9145H224.947L227.899 60.8124H230.621L234.453 70.2488L236.433 60.8124H239.135L236.182 74.9145Z" fill="#1B1918"/>
<path fill-rule="evenodd" clip-rule="evenodd" d="M0.5 22.7981C3.19248 18.915 6.22717 16.2246 11.9753 14.6829C15.9506 13.6166 20.035 13.532 24.4836 13.9795L53.64 16.914L83.5968 20.5482L85.6387 28.1442L79.5205 27.7599L78.8941 28.9022C77.5113 31.4251 76.0985 33.9877 74.6717 36.5919C76.7668 39.7417 78.8404 42.8727 80.9043 45.986C82.9613 49.0886 85 52.1709 87.0489 55.2388L78.5358 55.212C76.813 52.3706 75.0826 49.5217 73.3453 46.6632C71.5956 43.7819 69.8489 40.8987 68.1054 38.0137C68.3342 40.8364 68.5534 43.6778 68.7806 46.5304C69.0095 49.3975 69.2394 52.2834 69.4667 55.1836C67.0605 55.1719 64.6227 55.1644 62.1606 55.1569C61.7148 48.9505 61.27 42.8127 60.83 36.7546C60.5813 33.3271 60.3358 29.922 60.0913 26.5394L45.8886 25.6476C45.4965 26.0908 45.3101 26.6299 45.3461 27.2712C45.4025 28.2518 45.8091 29.0468 46.5354 29.6602C47.3692 30.3647 49.106 31.2635 51.7152 32.3635C54.0026 33.3282 55.7496 34.6653 56.9556 36.3724C58.1574 38.0726 58.852 40.1597 59.0276 42.6387C59.1791 44.781 59.0561 46.6819 58.6683 48.3312C58.2777 49.9922 57.6245 51.4076 56.687 52.5778C54.7939 54.9412 51.9274 56.1429 48.0487 56.1418C46.0858 56.1418 43.9875 55.6553 41.7473 54.6783C39.7865 53.8229 38.1056 52.7887 36.7045 51.5602C37.823 48.7942 38.9361 46.0626 40.0368 43.37C42.3103 46.1316 44.8164 47.5384 47.547 47.6032C48.6053 47.6278 49.4766 47.2943 50.1788 46.5979C50.8782 45.9036 51.1957 45.0401 51.1307 44.0054C51.0012 41.9402 49.0528 40.2855 45.2053 39.0126C42.4532 38.1025 40.3919 36.7557 39.0457 34.9592C37.7478 33.2275 37.0177 30.9305 36.8786 28.0838C36.8265 27.018 36.8593 26.0196 36.9753 25.0882L29.2492 24.6027C29.4512 29.4632 29.6515 34.3699 29.8535 39.3263C30.0652 44.5161 30.2865 49.7556 30.5062 55.0578L21.3657 55.0295L20.8446 38.9167L20.3638 24.0449L0.5 22.7981ZM71.7143 27.2696L67.2303 26.988L67.2614 27.3841C67.4629 29.945 67.6735 32.5177 67.8771 35.1054C69.0831 32.6215 70.2966 30.172 71.4801 27.7492L71.7143 27.2696Z" fill="#E30016"/>
<path fill-rule="evenodd" clip-rule="evenodd" d="M7.83984 51.8246H9.84631C11.1517 54.6692 12.9976 57.4646 15.2517 60.223C19.2861 64.4402 24.6979 67.1981 31.4882 68.4978C42.5649 69.6487 51.8033 67.6268 60.2954 64.3144C68.7027 60.3986 75.55 54.9278 80.5127 47.5801C83.1789 42.9203 85.4298 38.0827 85.6796 32.3903C85.7199 26.1261 84.5912 19.8614 79.2852 13.5967C73.7525 7.96211 64.8676 4.47351 57.0104 4.21603C48.8035 3.9457 42.2227 5.69348 35.0408 8.31915L34.7636 7.84059C41.1483 4.94298 46.8594 2.60797 53.7695 1.11179C60.087 -0.0578548 66.7113 -0.00432633 73.5457 0.885353C78.503 1.97042 83.3363 3.6727 87.9493 6.47395C92.6101 9.49415 96.7138 13.6872 99.8253 19.969C102.721 26.6625 102.471 33.356 101.569 40.0495C100.301 45.8297 97.2822 51.2614 93.4304 56.5262C87.8622 63.3289 81.3008 69.0754 73.1492 73.1314C65.0051 76.7549 56.4904 79.2061 47.3128 79.5679C37.8611 79.8254 28.9693 77.8517 20.8956 72.617C14.1472 68.1557 8.22986 60.1347 7.83984 51.8246Z" fill="#1B1918"/>
<path fill-rule="evenodd" clip-rule="evenodd" d="M9.0695 51.8246C10.1944 55.8908 12.2046 59.3232 14.8885 62.1507L14.2009 62.8599C11.5815 59.7482 9.72167 56.0642 8.68164 51.8246H9.0695ZM16.5823 63.778C18.6952 65.6328 21.1336 67.1772 23.8191 68.4239L22.829 69.7263C20.1752 68.3056 17.8475 66.6146 15.8641 64.6586L16.5823 63.778ZM25.9249 69.3205C27.1788 69.8075 28.4562 70.2319 29.7525 70.5919C32.2699 71.2032 34.763 71.6133 37.2396 71.8783L36.6105 74.1817C33.2707 73.6635 30.0002 72.8097 26.8607 71.5801C26.2692 71.3485 25.6835 71.1025 25.1041 70.8424L25.9249 69.3205ZM40.0143 72.1181C42.3291 72.2717 44.631 72.3156 46.9254 72.2947C48.5918 72.1531 50.2511 71.9395 51.8989 71.6545L52.3969 74.3117C48.0955 74.8572 43.7489 74.9611 39.4835 74.5446L40.0143 72.1181ZM54.5812 71.1219C59.4724 70.0245 64.1886 68.2655 68.5475 65.7945L70.432 69.3933C65.632 71.4361 60.4867 72.9826 55.2306 73.8878L54.5812 71.1219ZM72.1038 63.5623C72.4777 63.3036 72.8477 63.0393 73.2137 62.7695C76.648 59.9484 79.9207 57.0738 82.8377 54.0804L83.0171 53.8507L87.9095 56.6343C84.0223 60.9703 79.3813 64.6623 74.4412 67.5321L74.2886 67.6086L72.1038 63.5623ZM85.3411 50.4826C87.5813 46.8307 89.259 42.7517 90.2995 38.6031L97.7635 38.905C96.3952 44.114 93.9117 48.9473 90.6777 53.2646L85.3411 50.4826ZM91.1107 34.4598C91.3014 30.4246 90.9796 26.9548 90.0594 23.7494L95.8865 20.1344C97.8129 24.6043 98.7267 29.5371 98.6048 34.5278L91.1107 34.4598ZM88.5053 19.6762C87.0183 16.5832 84.8705 13.6267 81.9691 10.4866L85.4878 7.32188C88.9184 9.69972 91.6861 12.6953 93.7806 16.0859L88.5053 19.6762ZM79.8261 8.78381C77.1025 6.78658 74.5577 5.44885 71.9099 4.5308L72.2418 1.96828C75.9835 2.66044 79.6236 3.90127 82.9414 5.74005L79.8261 8.78381ZM69.1454 3.72677C65.9184 2.95325 62.4174 2.64224 58.1864 2.40617L58.1418 1.53147C60.0779 1.3575 62.1026 1.27613 64.2563 1.30504C65.9608 1.27908 67.6652 1.35917 69.3597 1.54486L69.1454 3.72677ZM55.2924 2.58496C49.6985 3.13632 44.9566 4.64375 40.2721 6.2154L40.0776 5.8439C45.2327 4.06936 49.9832 2.61868 55.2806 1.8639L55.2924 2.58496Z" fill="#EEEEEE"/>
</g>
<defs>
<clipPath id="clip0_30_146">
<rect width="240" height="79.3651" fill="white" transform="translate(0.5 0.224792)"/>
</clipPath>
</defs>
</svg>
